<?xml version="1.0" standalone="no"?>
<!DOCTYPE svg PUBLIC "-//W3C//DTD SVG 20010904//EN"
 "http://www.w3.org/TR/2001/REC-SVG-20010904/DTD/svg10.dtd">
<svg version="1.0" xmlns="http://www.w3.org/2000/svg"
 width="700.000000pt" height="700.000000pt" viewBox="0 0 700.000000 700.000000"
 preserveAspectRatio="xMidYMid meet">
<metadata>
Created by potrace 1.14, written by Peter Selinger 2001-2017
</metadata>
<g transform="translate(0.000000,700.000000) scale(0.100000,-0.100000)"
fill="#000000" stroke="none">
<path d="M2355 6548 c-36 -21 -54 -52 -55 -92 0 -32 14 -62 76 -160 41 -67 81
-130 87 -141 7 -11 20 -32 29 -46 l18 -27 -43 -27 c-23 -16 -75 -55 -116 -89
l-74 -60 -501 -2 c-276 -1 -514 -5 -531 -9 -16 -3 -59 -18 -95 -32 -182 -72
-314 -221 -366 -414 -16 -59 -17 -192 -17 -1894 0 -1704 1 -1834 17 -1894 55
-204 204 -363 401 -428 80 -26 81 -26 442 -28 200 -1 365 -3 366 -6 2 -2 -20
-54 -49 -115 -65 -136 -83 -199 -79 -284 12 -250 252 -417 493 -341 69 21 111
48 166 105 38 39 65 92 259 501 34 72 65 132 68 135 6 4 1009 5 1070 1 10 -1
25 -21 37 -48 11 -27 56 -122 100 -213 43 -91 98 -204 120 -251 28 -58 58
-104 92 -137 216 -215 579 -106 640 192 22 110 3 192 -91 377 -33 67 -36 77
-21 81 14 3 418 2 445 -1 4 -1 7 -157 7 -347 l0 -346 34 -34 c22 -22 44 -34
63 -35 63 -2 369 1 383 4 206 48 356 160 437 328 23 46 47 109 54 139 19 81
19 3460 0 3540 -57 243 -271 437 -513 466 -29 4 -196 7 -372 8 l-319 1 -19 95
c-83 410 -321 777 -663 1022 -35 25 -54 45 -51 54 3 7 36 62 74 121 106 168
124 203 124 238 0 82 -85 130 -160 91 -19 -10 -62 -70 -131 -183 -57 -92 -105
-169 -106 -171 -2 -2 -31 9 -66 24 -292 122 -618 157 -926 99 -112 -21 -288
-76 -354 -111 -16 -8 -34 -12 -39 -9 -5 3 -51 73 -102 157 -112 181 -136 208
-186 208 -20 0 -46 -6 -57 -12z m-283 -872 c-4 -6 -29 -45 -56 -85 -102 -154
-180 -339 -221 -526 -10 -44 -21 -93 -25 -110 l-6 -30 -225 -1 c-168 -1 -236
2 -274 13 -171 50 -287 209 -279 384 8 168 125 311 288 353 69 18 809 20 798
2z m666 -112 c50 -20 79 -50 93 -93 24 -72 7 -136 -51 -184 -102 -86 -262 -8
-262 128 0 115 115 193 220 149z m1462 -23 c148 -118 13 -350 -161 -277 -85
36 -123 137 -83 221 44 93 164 120 244 56z m-3180 -727 c41 -34 141 -77 231
-101 13 -3 1014 -7 2224 -8 1734 -1 2211 -4 2252 -14 113 -27 221 -125 263
-238 68 -182 -17 -394 -193 -477 -69 -32 -120 -39 -306 -39 -112 0 -164 -4
-183 -14 -61 -30 -58 43 -58 -1286 l0 -1215 -286 2 -285 1 -15 25 c-12 22 -78
159 -187 390 -19 41 -65 138 -102 215 -37 77 -82 172 -100 210 -18 39 -60 126
-93 195 -73 154 -146 307 -202 425 -23 50 -58 122 -78 162 l-35 72 21 50 c56
130 62 274 17 401 -30 81 -93 179 -149 228 -50 44 -146 98 -203 114 l-48 14
-5 134 c-5 147 -13 169 -64 194 -46 22 -112 3 -138 -42 -12 -21 -16 -55 -16
-151 0 -68 -4 -127 -9 -131 -4 -4 -26 -13 -48 -20 -132 -41 -259 -149 -319
-271 -78 -158 -79 -312 -6 -494 11 -28 7 -40 -58 -175 -93 -194 -165 -344
-222 -465 -26 -55 -69 -145 -95 -200 -26 -55 -72 -152 -102 -215 -31 -63 -78
-162 -105 -220 -28 -58 -75 -157 -105 -220 -30 -63 -66 -140 -81 -171 l-27
-56 -380 -1 c-209 0 -402 4 -429 9 -134 25 -246 122 -293 256 -15 44 -17 175
-17 1600 -1 1036 2 1549 9 1546 5 -4 17 -12 25 -19z m4995 -2401 c-1 -1177 -3
-1445 -14 -1478 -35 -102 -90 -175 -169 -222 -26 -15 -49 -28 -52 -28 -3 -1
-25 -7 -50 -14 -25 -8 -93 -14 -152 -16 l-108 -2 0 1533 0 1533 103 0 c180 0
293 30 397 105 19 14 37 25 40 26 3 0 5 -647 5 -1437z m-2520 1288 c90 -25
185 -126 210 -222 30 -114 -10 -257 -92 -330 -133 -116 -333 -111 -454 12
-121 123 -126 320 -11 450 33 38 116 88 166 100 39 9 130 4 181 -10z m-28
-1543 c14 -11 108 -199 215 -428 17 -36 55 -115 84 -177 30 -61 54 -116 54
-121 0 -6 -172 -9 -434 -10 -401 0 -434 1 -426 17 9 16 102 209 173 361 112
240 165 346 178 356 41 32 118 34 156 2z"/>
</g>
</svg>
